<svg xmlns="http://www.w3.org/2000/svg" viewBox="0 0 153.68 48.35"><defs><style>.cls-1{fill:#fff;}</style></defs><title>mada-white</title><g id="Layer_2" data-name="Layer 2"><g id="Layer_1-2" data-name="Layer 1"><path class="cls-1" d="M53.8,46.78c-3.21-.34-3.55-.47-3.55-2V25.17a7.22,7.22,0,0,0-1.09-4c-.88-1.57-3-3.41-6.75-3.41-5.25,0-8.31,2.93-10.9,5a9.4,9.4,0,0,0-1.3-2.6c-.95-1.22-2.73-2.38-5.93-2.38-5.07,0-8.67,3-11,5V17.48L0,19.05v.82H1.3c1.86.06,2.13.4,2.19,1.09.14,2,.2,4.56.2,8.52v6.74c0,4-.06,6.68-.2,8.46S2.88,46.58,0,46.78H0v.91H16.43v-.92c-2.52-.27-2.93-.41-3.07-1.77-.13-2-.2-3.89-.2-6.61v-11A5.63,5.63,0,0,1,14.06,24a5.85,5.85,0,0,1,4.7-3,3.18,3.18,0,0,1,3.07,1.91c.34.75.41,1.57.41,4.43v8.86c0,4-.07,6.62-.21,8.52-.07,1.64-.61,1.85-3,2.05h-.15v.91H35.31v-.91h-.19c-2.73-.2-3.2-.47-3.27-1.63-.14-1.78-.14-4-.14-6.75V27.08a6.42,6.42,0,0,1,.55-2.93A5.36,5.36,0,0,1,37,21a3.42,3.42,0,0,1,3.34,2.12c.27.81.48,1.5.41,11.59,0,6.4-.14,8.72-.21,10.29-.13,1.3-.54,1.63-2.86,1.77h-.24v.91H53.9v-.91h-.1Z"/><path class="cls-1" d="M152.65,40.37c-.55,2.8-1.91,5.05-3.13,5.05-.89,0-1.37-.34-1.37-2.53V25.24a6.88,6.88,0,0,0-1-3.34c-1.23-1.64-3.75-4.09-10.5-4.09-9.47,0-13.63,4.5-13.63,7.84,0,2.52,1.84,3.54,3.88,3.54a5.28,5.28,0,0,0,3.27-1,1.61,1.61,0,0,0,.55-1.64,14.11,14.11,0,0,1-.21-2.52c-.06-3.27,1.37-5.25,4.57-5.25,2.73,0,4,2.18,4,5.93l.07,3.48L124.91,33.9c-2.19.82-3.41,2.93-3.41,5.93,0,5,2.93,8.52,8.11,8.52,3.34,0,6.48-1.77,9.41-4.91.41,2.59,1.63,4.91,6.06,4.91s7.64-2,8.6-7.5Zm-13.56-2a16.26,16.26,0,0,1-.34,2.86c-.48,1.23-1.23,3.41-3.75,3.41s-3.62-3.55-3.62-6.2V38.4c0-4.09,1.37-5.46,2.73-6.34s3.54-1.91,5.11-2.73Z"/><path class="cls-1" d="M119.84,46.22h-.38l-2.06,0c-.69-.05-1.09-.22-1.29-.83V0L102.05,1.66v.88h0c3.68,0,3.89.14,4,2,.2,3.81.13,10.22.13,14.72-1-.82-3.41-1.43-6-1.43-10.9,0-15.33,7.5-15.33,16.22A20.31,20.31,0,0,0,86,41.15c-.63,2.42-1.85,4.27-2.95,4.27-.89,0-1.37-.34-1.37-2.53V25.24a6.88,6.88,0,0,0-1-3.34c-1.23-1.64-3.75-4.09-10.5-4.09-9.48,0-13.63,4.5-13.63,7.84,0,2.52,1.84,3.54,3.88,3.54a5.3,5.3,0,0,0,3.27-1,1.61,1.61,0,0,0,.55-1.64,14.11,14.11,0,0,1-.21-2.52c-.07-3.27,1.37-5.25,4.57-5.25,2.73,0,4,2.18,4,5.93l.07,3.48h-.06L58.37,33.9l.39-.13-.33.13c-2.19.82-3.41,2.93-3.41,5.93,0,5,2.93,8.52,8.11,8.52,3.34,0,6.48-1.77,9.41-4.91C73,46,74.17,48.35,78.6,48.35c3.85,0,6.76-1.55,8.09-5.52A10.94,10.94,0,0,0,88.16,45c1.84,2.11,4.57,3.34,8.25,3.34,4,0,7-2,9.54-4.36l.13.06c0,.59,0,1.36,0,2.17h0v.92c0,.19,0,.37,0,.56h13.82V46.24h0ZM72.6,38.4a16.35,16.35,0,0,1-.33,2.86c-.48,1.23-1.23,3.41-3.75,3.41s-3.62-3.55-3.62-6.2V38.4c0-4.09,1.37-5.46,2.73-6.34s3.54-1.91,5.11-2.73Zm33,4a4.72,4.72,0,0,1-4.43,2.86,5,5,0,0,1-4.43-2.79c-1.09-2-1.84-6-1.84-9.62v-.06c0-7.78,2-13.84,6.47-13.84a4.44,4.44,0,0,1,4.3,3.13c.34.75.47,2.25.47,9.14C106.15,40.51,106,41.6,105.61,42.42Z"/></g></g></svg>