<?xml version="1.0" encoding="UTF-8"?>
<svg width="176px" height="176px" viewBox="0 0 176 176" version="1.1" xmlns="http://www.w3.org/2000/svg" xmlns:xlink="http://www.w3.org/1999/xlink">
    <!-- Generator: Sketch 64 (93537) - https://sketch.com -->
    <title>Group 3</title>
    <desc>Created with Sketch.</desc>
    <g id="Profile" stroke="none" stroke-width="1" fill="none" fill-rule="evenodd" opacity="0.401739211">
        <g id="Profile---NO-IMAGE" transform="translate(-100.000000, -124.000000)">
            <g id="Group-3" transform="translate(102.000000, 126.000000)">
                <g id="Group-11" opacity="0.1" transform="translate(38.000000, 25.000000)" fill="#000000">
                    <g id="Group" fill-rule="nonzero">
                        <path d="M48.299999,61.7791373 C60.7459216,61.8162342 71.9870565,54.3476481 76.775728,42.8597848 C81.5643994,31.3719215 78.9562317,18.130307 70.1687904,9.31649676 C61.381349,0.502686499 48.1476087,-2.14514466 36.645449,2.60908481 C25.1432892,7.36331428 17.6409996,18.582021 17.6409996,31.0279993 C17.6661277,47.9650152 31.3631344,61.7031232 48.299999,61.7791373 Z M48.299999,7.19982117 C57.957205,7.1627534 66.6838009,12.952679 70.4031422,21.8650028 C74.1224835,30.7773266 72.1004459,41.0529326 65.2816279,47.8915536 C58.46281,54.7301745 48.193111,56.7820022 39.2700388,53.0885218 C30.3469665,49.3950415 24.5317586,40.6852727 24.5409885,31.0279993 C24.5535612,17.9002766 35.1723679,7.25063113 48.299999,7.19982117 Z" id="Shape"></path>
                        <path d="M74.8419984,75.3029984 L21.9419995,75.3029984 C9.82902274,75.3156755 0.0126771185,85.1320211 0,97.2449979 L0,99.5449979 C0.0126770919,111.645272 9.81872528,121.45132 21.9189995,121.463997 L74.8189984,121.463997 C86.9245276,121.463997 96.737998,111.650527 96.737998,99.5449979 L96.737998,97.2449979 C96.737998,85.1447076 86.9422622,75.3283659 74.8419984,75.3029984 L74.8419984,75.3029984 Z M89.8609981,99.4299979 C89.8483327,107.719511 83.1315111,114.436332 74.8419984,114.448998 L21.9419995,114.448998 C13.6435063,114.448998 6.91268868,107.728481 6.89999986,99.4299979 L6.89999986,97.1299979 C6.91262271,88.8367372 13.6257679,82.1133116 21.9189995,82.0879983 L74.8189984,82.0879983 C83.1122301,82.1133116 89.8253753,88.8367372 89.8379981,97.1299979 L89.8609981,99.4299979 Z" id="Shape"></path>
                    </g>
                    <circle id="Oval" cx="45.999999" cy="32.4999993" r="28.7499994"></circle>
                    <rect id="Rectangle" x="5.74999988" y="78.4999983" width="86.2499982" height="40.2499992" rx="20.1249996"></rect>
                </g>
                <circle id="Oval" stroke="#E0E0E0" stroke-width="4" cx="86" cy="86" r="86"></circle>
            </g>
        </g>
    </g>
</svg>