<?xml version="1.0" encoding="UTF-8"?>
<svg width="21px" height="18px" viewBox="0 0 21 18" version="1.1" xmlns="http://www.w3.org/2000/svg" xmlns:xlink="http://www.w3.org/1999/xlink">
    <!-- Generator: Sketch 64 (93537) - https://sketch.com -->
    <title>Shape Copy</title>
    <desc>Created with Sketch.</desc>
    <g id="Profile" stroke="none" stroke-width="1" fill="none" fill-rule="evenodd">
        <g id="Profile---NO-IMAGE" transform="translate(-329.000000, -359.000000)" fill="#B0B0B0" fill-rule="nonzero">
            <path d="M332,377 C330.350975,377 329,375.610426 329,373.914287 L329,364.657141 C329,362.961002 330.350975,361.571428 332,361.571428 L334.4922,361.571428 L335.3047,359.490166 C335.416849,359.19561 335.692452,359.001319 336,359 L343,359 C343.307547,359.001319 343.583149,359.19561 343.695299,359.490166 L344.507799,361.571428 L347,361.571428 C348.649025,361.571428 350,362.961002 350,364.657141 L350,373.914287 C350,375.610426 348.649025,377 347,377 L332,377 L332,377 Z M332,375.457143 L347,375.457143 C347.843975,375.457143 348.5,374.782375 348.5,373.914287 L348.5,364.657141 C348.5,363.789053 347.843975,363.114285 347,363.114285 L344,363.114285 C343.694379,363.114277 343.419326,362.923546 343.304699,362.632142 L342.492199,360.542857 L336.507799,360.542857 L335.6953,362.632142 C335.580673,362.923546 335.305619,363.114277 335,363.114285 L332,363.114285 C331.156025,363.114285 330.5,363.789053 330.5,364.657141 L330.5,373.914287 C330.5,374.782375 331.156025,375.457143 332,375.457143 L332,375.457143 Z M339.5,373.698287 C336.747474,373.698287 334.5,371.386624 334.5,368.555431 C334.5,365.724232 336.747474,363.41257 339.5,363.41257 C342.252549,363.41257 344.5,365.724258 344.5,368.555431 C344.5,371.386599 342.252549,373.698287 339.5,373.698287 Z M339.5,372.15543 C341.441899,372.15543 343,370.552788 343,368.555431 C343,366.558069 341.441899,364.955427 339.5,364.955427 C337.558174,364.955427 336,366.558069 336,368.555431 C336,370.552762 337.558174,372.15543 339.5,372.15543 Z" id="Shape-Copy"></path>
        </g>
    </g>
</svg>