<svg xmlns="http://www.w3.org/2000/svg" viewBox="-4284.223 1534.777 22.446 22.446">
  <defs>
    <style>
      .cls-1 {
        fill: none;
      }
    </style>
  </defs>
  <g id="ic_card_travel_black_24px" transform="translate(-4284.223 1534.777)">
    <path id="Path_41" data-name="Path 41" class="cls-1" d="M0,0H22.446V22.446H0Z"/>
    <path id="Path_42" data-name="Path 42" d="M18.835,5.741H16.029V3.871A1.864,1.864,0,0,0,14.158,2H8.547A1.864,1.864,0,0,0,6.676,3.871V5.741H3.871A1.864,1.864,0,0,0,2,7.612V17.9A1.864,1.864,0,0,0,3.871,19.77H18.835A1.864,1.864,0,0,0,20.705,17.9V7.612A1.864,1.864,0,0,0,18.835,5.741ZM8.547,3.871h5.612V5.741H8.547ZM18.835,17.9h0Zm0,0H3.871V7.612H6.676V9.482H8.547V7.612h5.612V9.482h1.871V7.612h2.806Z" transform="translate(-0.129 0.806)"/>
  </g>
</svg>
