<?xml version="1.0" encoding="UTF-8"?>
<svg width="26px" height="26px" viewBox="0 0 24 24" version="1.1" xmlns="http://www.w3.org/2000/svg" xmlns:xlink="http://www.w3.org/1999/xlink">
    <!-- Generator: Sketch 58 (84663) - https://sketch.com -->
    <title>Dress</title>
    <desc>Created with Sketch.</desc>
    <g id="Dress" stroke="none" stroke-width="1" fill="none" fill-rule="evenodd">
        <path d="M16.4234964,0.00805566941 L16.5133721,0 C16.7588319,0 16.9629804,0.176875161 17.0053164,0.410124368 L17.0133721,0.5 L17.0146409,4.20381704 C20.2614614,6.10815929 19.1650156,10.8341403 16.1792113,12.4488947 C17.6029924,13.0997111 18.6102084,14.4422618 19.2447581,16.2944489 C19.838125,18.0264276 20.0419108,19.9562382 20.0193297,21.6765107 C20.0141105,22.0772917 19.7700921,22.4362349 19.3912257,22.5917566 C17.039714,23.5098994 14.5392601,23.9872682 12.009969,24 C9.48451894,23.9878563 6.98292318,23.5104685 4.62341997,22.5889224 C4.25187329,22.4372673 4.00697594,22.0781895 4.00140765,21.6759662 C3.98078478,19.9477702 4.1842564,18.025482 4.77763714,16.2943727 C5.41254209,14.4421219 6.4201629,13.0996319 7.8448145,12.4465297 C4.85885003,10.8332693 3.76287029,6.10561914 7.01262767,4.20233746 L7.01337205,0.516 C7.01337205,0.239857625 7.23722968,0.016 7.51337205,0.016 C7.75883194,0.016 7.96298042,0.192875161 8.00531638,0.426124368 L8.01337205,0.516 L8.01332088,4.50722759 L8.01894977,4.62095649 C8.13248985,5.66559637 9.70357773,6.60901416 11.7716031,6.95757225 L12.0123721,6.99512249 L12.253141,6.95757225 C14.4007058,6.59560808 16.0123721,5.5921458 16.0123721,4.5 L16.013,4.487 L16.0133721,0.5 C16.0133721,0.254540111 16.1902472,0.0503916296 16.4234964,0.00805566941 L16.5133721,0 Z M10.0123721,13 C7.88974202,13 6.51777677,14.3017426 5.72360697,16.6186273 C5.17458935,18.2203132 4.98195874,20.0401814 5.00132413,21.6630776 L5.00132413,21.6630776 L5.47596331,21.8411165 C7.57234826,22.5969156 9.78343874,22.9892832 12.0098516,23 C14.4114744,22.9878997 16.7903464,22.5337424 19.0194144,21.6634893 L19.0194144,21.6634893 L19.0197839,21.2178891 C19.0026069,19.7174638 18.7978105,18.0752995 18.298736,16.6185511 C17.5050305,14.301804 16.1336425,13 14.0123721,13 L14.0123721,13 Z M16.8605109,5.30899328 C16.3415204,6.64826965 14.5485597,7.60021605 12.3561238,7.95427068 L12.0800519,7.99539826 L11.9446922,7.99539826 C9.6278095,7.67887247 7.70484835,6.70407283 7.16423323,5.30899328 C4.7354155,7.23466585 6.56670611,11.828927 9.82964286,11.9953545 L10.0123721,12 L14.0123721,12 C17.3887515,12 19.3343067,7.27032645 16.8605109,5.30899328 Z" fill="#000000" fill-rule="nonzero"></path>
    </g>
</svg>