<?xml version="1.0" encoding="utf-8"?>
<!-- Generator: Adobe Illustrator 22.1.0, SVG Export Plug-In . SVG Version: 6.00 Build 0)  -->
<svg version="1.1" id="Layer_1" xmlns="http://www.w3.org/2000/svg" xmlns:xlink="http://www.w3.org/1999/xlink" x="0px" y="0px"
	 viewBox="0 0 24 24" style="enable-background:new 0 0 24 24;" xml:space="preserve">
<style type="text/css">
	.st0{fill:#95989A;}
</style>
<path id="Path_144" class="st0" d="M23.2,10.9h-4.7l3.6-3.6l-1.6-1.6l-5.2,5.2h-2.2V8.6l5.3-5.3l-1.6-1.6l-3.7,3.7V0.8h-2.2v4.7
	L7.3,1.8L5.6,3.4l5.3,5.3v2.2H8.6L3.4,5.6L1.8,7.3l3.7,3.6H0.8v2.2h4.7l-3.6,3.6l1.6,1.6l5.2-5.2h2.2v2.2l-5.3,5.3l1.6,1.6l3.7-3.7
	v4.7h2.2v-4.7l3.6,3.6l1.6-1.6l-5.2-5.2v-2.2h2.2l5.3,5.3l1.6-1.6l-3.7-3.7h4.7L23.2,10.9z"/>
</svg>
