<?xml version="1.0" encoding="utf-8"?>
<!-- Generator: Adobe Illustrator 22.1.0, SVG Export Plug-In . SVG Version: 6.00 Build 0)  -->
<svg version="1.1" id="Layer_1" xmlns="http://www.w3.org/2000/svg" xmlns:xlink="http://www.w3.org/1999/xlink" x="0px" y="0px"
	 viewBox="0 0 24 24" style="enable-background:new 0 0 24 24;" xml:space="preserve">
<style type="text/css">
	.st0{fill:#95989A;}
</style>
<path class="st0" d="M6.8,4.8L5,3.1L3.6,4.5l1.8,1.8L6.8,4.8z M4,10.5H1v2h3V10.5z M13,0.6h-2v2.9h2C13,3.5,13,0.6,13,0.6z
	 M20.5,4.5L19,3.1l-1.8,1.8l1.4,1.4L20.5,4.5z M17.2,18.2L19,20l1.4-1.4l-1.8-1.8C18.6,16.8,17.2,18.2,17.2,18.2z M20,10.5v2h3v-2
	H20z M12,5.5c-3.3,0-6,2.7-6,6s2.7,6,6,6s6-2.7,6-6S15.3,5.5,12,5.5z M11,22.5h2v-3h-2V22.5z M3.6,18.5L5,20l1.8-1.8l-1.4-1.4
	L3.6,18.5z"/>
</svg>
