<?xml version="1.0" encoding="utf-8"?>
<!-- Generator: Adobe Illustrator 23.0.6, SVG Export Plug-In . SVG Version: 6.00 Build 0)  -->
<svg version="1.1" id="Layer_1" xmlns="http://www.w3.org/2000/svg" xmlns:xlink="http://www.w3.org/1999/xlink" x="0px" y="0px"
	 viewBox="0 0 18.1 18.1" style="enable-background:new 0 0 18.1 18.1;" xml:space="preserve">
<style type="text/css">
	.st0{fill:none;}
</style>
<g id="ic_favorite_border_black_24px" transform="translate(-1482.046 2233)">
	<path id="Path_67" class="st0" d="M1480.7-2233.1h20.8v20.5h-20.8V-2233.1z"/>
	<path id="Path_68" style="fill: #ffffff;"
     d="M1495-2231.7c-1.5,0-2.9,0.7-3.9,1.8c-1-1.1-2.4-1.8-3.9-1.8c-2.6,0-4.7,2-4.8,4.6c0,0,0,0.1,0,0.1
		c0,3.2,3,5.9,7.4,9.9l1.3,1.1l1.3-1.1c4.5-4,7.4-6.6,7.4-9.9c0-2.6-2.1-4.7-4.7-4.7C1495.1-2231.7,1495.1-2231.7,1495-2231.7z
		 M1491.2-2218.4L1491.2-2218.4h-0.2c-4.1-3.7-6.9-6.1-6.9-8.6c0-1.6,1.3-3,2.9-3c0,0,0.1,0,0.1,0c1.3,0,2.6,0.8,3.1,2h1.6
		c0.5-1.2,1.7-2,3.1-2c1.6,0,3,1.2,3,2.9c0,0,0,0.1,0,0.1C1498.1-2224.5,1495.3-2222.1,1491.2-2218.4z"/>
</g>
</svg>
