<svg xmlns="http://www.w3.org/2000/svg" viewBox="-1482.0460205078125 2233 18.135000228881836 18.135000228881836">
  <defs>
    <style>
      .cls-1 {
        fill: none;
      }

      .cls-2 {
        fill: #fff;
      }
    </style>
  </defs>
  <g id="ic_favorite_border_black_24px" transform="translate(-1482.046 2233)">
    <path id="Path_67" data-name="Path 67" class="cls-1" d="M0,0H18.135V18.135H0Z"></path>
    <path id="Path_68" data-name="Path 68" class="cls-2" d="M12.957,3a4.525,4.525,0,0,0-3.4,1.579A4.525,4.525,0,0,0,6.156,3,4.116,4.116,0,0,0,2,7.156c0,2.856,2.569,5.184,6.461,8.72l1.1.99,1.1-1c3.891-3.529,6.461-5.856,6.461-8.712A4.116,4.116,0,0,0,12.957,3ZM9.632,14.75l-.076.076-.076-.076c-3.6-3.257-5.969-5.41-5.969-7.594A2.582,2.582,0,0,1,6.156,4.511a2.954,2.954,0,0,1,2.7,1.783h1.413a2.935,2.935,0,0,1,2.69-1.783A2.582,2.582,0,0,1,15.6,7.156C15.6,9.34,13.229,11.493,9.632,14.75Z" transform="translate(-0.489 -1.733)"></path>
  </g>
</svg>