<svg xmlns="http://www.w3.org/2000/svg" viewBox="-964.511 2190.534 25.067 25.067">
  <defs>
    <style>
      .cls-1 {
        fill: none;
      }

      .cls-2 {
        fill: #F8AEAB;
      }
    </style>
  </defs>
  <g id="ic_favorite_border_black_24px" transform="translate(-964.511 2190.534)">
    <path id="Path_67" data-name="Path 67" class="cls-1" d="M0,0H25.067V25.067H0Z"/>
    <path id="Path_68" data-name="Path 68" class="cls-2" d="M17.144,3a6.255,6.255,0,0,0-4.7,2.183A6.255,6.255,0,0,0,7.744,3,5.689,5.689,0,0,0,2,8.744c0,3.948,3.551,7.165,8.93,12.053l1.514,1.368,1.514-1.379c5.379-4.878,8.93-8.094,8.93-12.042A5.689,5.689,0,0,0,17.144,3Zm-4.6,16.241-.1.1-.1-.1c-4.972-4.5-8.251-7.478-8.251-10.5A3.57,3.57,0,0,1,7.744,5.089a4.083,4.083,0,0,1,3.729,2.465h1.953a4.057,4.057,0,0,1,3.718-2.465A3.57,3.57,0,0,1,20.8,8.744C20.8,11.763,17.52,14.74,12.549,19.241Z" transform="translate(0.089 0.133)"/>
    <path id="Path_160" data-name="Path 160" class="cls-2" d="M22.978,9.915V4.552H3.757v7.636l9.011,7.438Z" transform="translate(0 0.598)"/>
  </g>
</svg>
