<svg xmlns="http://www.w3.org/2000/svg" viewBox="0 0 12.386 12.386">
  <defs>
    <style>
      .cls-1 {
        fill: none;
      }

      .cls-2 {
        fill: #95989a;
      }
    </style>
  </defs>
  <g id="ic_favorite_border_black_24px" transform="translate(0)">
    <path id="Path_67" data-name="Path 67" class="cls-1" d="M0,0H12.386V12.386H0Z"/>
    <path id="Path_68" data-name="Path 68" class="cls-2" d="M9.483,3A3.091,3.091,0,0,0,7.161,4.079,3.091,3.091,0,0,0,4.838,3,2.811,2.811,0,0,0,2,5.838c0,1.951,1.755,3.54,4.413,5.956l.748.676.748-.681c2.658-2.41,4.413-4,4.413-5.95A2.811,2.811,0,0,0,9.483,3ZM7.212,11.025l-.052.052-.052-.052C4.653,8.8,3.032,7.33,3.032,5.838A1.764,1.764,0,0,1,4.838,4.032,2.018,2.018,0,0,1,6.681,5.25h.965A2,2,0,0,1,9.483,4.032a1.764,1.764,0,0,1,1.806,1.806C11.289,7.33,9.669,8.8,7.212,11.025Z" transform="translate(-0.968 -1.452)"/>
  </g>
</svg>
