<?xml version="1.0" encoding="UTF-8"?>
<svg width="26px" height="26px" viewBox="0 0 24 24" version="1.1" xmlns="http://www.w3.org/2000/svg" xmlns:xlink="http://www.w3.org/1999/xlink">
    <!-- Generator: Sketch 58 (84663) - https://sketch.com -->
    <title>Pants</title>
    <desc>Created with Sketch.</desc>
    <g id="Pants" stroke="none" stroke-width="1" fill="none" fill-rule="evenodd">
        <path d="M14.1153645,23 L15.0457067,23 C15.857334,23.0003415 16.5220615,22.3548912 16.5456016,21.5435 L17.3209263,13.869852 C17.668232,10.3426619 17.9095113,7.72176633 18.044261,6.01493727 C18.1616016,4.52862257 18.1616016,3.34660333 18.0412516,2.46162429 C18.0573605,2.13819306 17.9045317,1.74539059 17.6219426,1.45460636 C17.3394342,1.16390529 16.9512597,1 16.5458119,1 L6.54581192,1 C6.1411608,1 5.75367847,1.16330765 5.47129051,1.4530377 C5.18883748,1.74283451 5.03545937,2.13446186 5.04598095,2.53900012 L5.02034721,3.26601319 L5.00500791,3.93491351 C4.99143553,4.78771766 5.00541736,5.48362779 5.04736285,6.01493727 L5.23129294,8.21540226 L5.51055726,11.2750129 C5.77978049,14.1248287 6.12577325,17.5591526 6.5485555,21.5783074 C6.56956238,22.3518911 7.23428979,22.9973414 8.04602221,22.997 L8.97581192,22.9970001 C9.7769177,22.9978857 10.4375819,22.3682727 10.4752594,21.5674998 L10.9744729,8.01840895 C11.0187316,7.81487758 11.261759,7.61353651 11.5448119,7.61353651 C11.8278648,7.61353651 12.0708923,7.81487758 12.1235355,8.09299194 L12.6151521,21.5654418 C12.6530419,22.3712727 13.3137062,23.0008857 14.1153645,23 Z M15.0458119,22 L14.1148119,22 C13.8470399,22.0002956 13.6268185,21.7904247 13.6142594,21.5235004 L13.1144717,7.98155829 C12.9640677,7.156713 12.30843,6.61353651 11.5448119,6.61353651 C10.7811938,6.61353651 10.1255562,7.156713 9.98353552,7.90700806 L9.47615092,21.5255911 C9.4638053,21.7874247 9.2435839,21.9972957 8.97636446,21.9970004 L8.04581192,21.9970001 C7.77502415,21.9971139 7.55344835,21.7819638 7.54560163,21.5115001 L6.92875379,15.5122697 L6.51833577,11.3109356 C6.36231061,9.66258115 6.23180689,8.20958537 6.12673404,6.95060121 L6.04426099,5.93623478 C5.98964594,5.2444441 5.98544478,4.2263372 6.03256332,2.88739459 L6.04541264,2.54597803 C6.0421357,2.37815397 6.09326173,2.24761152 6.18741274,2.15101259 C6.28151802,2.05446058 6.41073738,2 6.54581192,2 L16.5458119,2 C16.6811986,2 16.810663,2.05466584 16.9048025,2.15153545 C16.9989989,2.24846353 17.0499418,2.37939769 17.0460222,2.51450004 C17.1492425,3.31887129 17.1586262,4.31406597 17.0751804,5.55614762 L16.9266831,7.38331265 L16.6598954,10.3125051 C16.484879,12.1699862 16.2651976,14.4110124 16.0008669,17.0353757 L15.5484338,21.4778626 C15.5393153,21.7508415 15.3632299,21.9511676 15.1341772,21.9922344 L15.0458119,22 Z" fill="#000000" fill-rule="nonzero"></path>
    </g>
</svg>