<?xml version="1.0" encoding="UTF-8"?>
<svg width="26px" height="26px" viewBox="0 0 24 24" version="1.1" xmlns="http://www.w3.org/2000/svg" xmlns:xlink="http://www.w3.org/1999/xlink">
    <!-- Generator: Sketch 58 (84663) - https://sketch.com -->
    <title>Shirt</title>
    <desc>Created with Sketch.</desc>
    <g id="Shirt" stroke="none" stroke-width="1" fill="none" fill-rule="evenodd">
        <path d="M17.145191,0 C17.4213333,0 17.645191,0.223857625 17.645191,0.5 L17.645191,0.5 L17.645,6.281 L17.7200492,6.35084823 C20.4310221,8.90270646 20.8023976,10.7639795 19.7381036,13.2393165 L19.6433835,13.4530225 L19.041161,14.7265502 C18.5606644,15.7832281 18.3781835,16.4409656 18.3781353,17.2674584 C18.3533587,18.9282576 18.7385597,20.5695346 19.5027501,22.0520857 C19.704953,22.4580611 19.691304,22.9381504 19.467707,23.329613 C19.2707994,23.6787657 18.9275641,23.9170893 18.5374615,23.9828295 L18.3891704,23.9992716 L4.90121149,23.9992716 C4.45091295,23.9749385 4.04419601,23.7224098 3.82355951,23.3311751 C3.59974102,22.9376137 3.58612143,22.4585593 3.79076545,22.0459018 C4.55182225,20.5695346 4.93702325,18.9282576 4.91219096,17.26 C4.91219096,16.376892 4.70056376,15.6830031 4.13299422,14.4753591 L4.00587149,14.2084585 L3.81580902,13.8137046 L3.55227833,13.2393165 C2.48798433,10.7639795 2.85935981,8.90270646 5.57033269,6.35084823 L5.645,6.281 L5.64519096,0.5 C5.64519096,0.254540111 5.82206612,0.0503916296 6.05531532,0.00805566941 L6.14519096,0 C6.39065084,0 6.59479933,0.176875161 6.63713529,0.410124368 L6.64519096,0.5 L6.64519096,6.5 C6.64519096,7.94179972 8.87577624,9 11.645191,9 C14.3280615,9 16.5052532,8.00690384 16.6387077,6.63402431 L16.645191,6.5 L16.645191,0.5 C16.645191,0.223857625 16.8690486,0 17.145191,0 Z M17.4462792,7.47787739 C16.7599804,9.07841209 14.3825057,10 11.645191,10 C8.90787618,10 6.53040147,9.07841209 5.84410274,7.47787739 C3.83131567,9.499966 3.6243339,10.873208 4.46603486,12.8331235 L4.55681717,13.0380168 L5.04580536,14.0665449 C5.66777031,15.3918692 5.91218725,16.1957381 5.91213532,17.2525416 C5.93936512,19.0777763 5.51602541,20.8815559 4.68316347,22.4970825 C4.62971477,22.6048962 4.63333467,22.732222 4.69370701,22.838387 C4.73666868,22.9145657 4.80836376,22.9689817 4.87740144,22.9903482 L4.92819096,23 L18.3455746,23 L18.4070384,22.9885253 C18.4866094,22.9653845 18.5553801,22.9116135 18.5980195,22.8360179 C18.6574411,22.7319815 18.6610467,22.6051588 18.6107655,22.5040982 C17.7743565,20.8815559 17.3510168,19.0777763 17.378191,17.26 C17.378191,16.1962353 17.6226114,15.3919023 18.2445765,14.0665471 L18.3836821,13.7742831 L18.5703542,13.3865828 L18.8243471,12.8331235 C19.666048,10.873208 19.4590662,9.499966 17.4462792,7.47787739 Z" fill="#000000" fill-rule="nonzero"></path>
    </g>
</svg>