<?xml version="1.0" encoding="UTF-8"?>
<svg width="26px" height="26px" viewBox="0 0 24 24" version="1.1" xmlns="http://www.w3.org/2000/svg" xmlns:xlink="http://www.w3.org/1999/xlink">
    <!-- Generator: Sketch 58 (84663) - https://sketch.com -->
    <title>Shoes</title>
    <desc>Created with Sketch.</desc>
    <g id="Shoes" stroke="none" stroke-width="1" fill="none" fill-rule="evenodd">
        <path d="M6.05250008,0.0470635781 C2.33369259,1.78593784 -0.0306428326,5.53261372 0.000300078294,9.63776358 C0,10.101109 0.0304910923,10.5683096 0.091562392,11.03225 C0.553972759,14.5625362 0.688811932,16.7523517 0.740743018,19.9709571 L0.757836676,21.0793261 L0.770981362,21.5377671 C0.845576257,23.5619154 1.12237786,24 2.30128588,24 L2.80128588,24 C3.19911061,24 3.58064148,23.8419596 3.86194605,23.5606551 C4.14325061,23.2793505 4.30128588,22.8978196 4.30128588,22.5 L4.30128588,14.9339949 C4.30041449,14.4695848 4.63989211,14.0757368 5.09842381,14.008248 C5.55695551,13.9407592 5.995515,14.2200921 6.12822009,14.6641591 L8.81888497,21.2112195 C9.51357459,22.9009229 11.1610528,24.0029462 12.9880937,24 L18.2222859,24 C21.522059,24 23.1742859,23.4027904 23.1742859,22.0369949 C23.1742859,21.4686356 22.9137415,20.9675892 22.419314,20.478182 L22.3223815,20.4056013 L20.2397341,18.9740248 C18.3750498,17.677227 15.7968649,15.815329 14.5151364,14.5103217 C11.9529742,11.9016251 9.91979077,8.57801229 8.47400228,4.20600974 L7.19088429,0.631065517 C7.02015522,0.237070847 6.66252787,0.00178969802 6.26654567,0 L6.05250008,0.0470635781 Z M6.27915823,1.04776075 L7.52868746,4.53192427 C9.01851916,9.03761999 11.1325846,12.4934494 13.8016951,15.2110366 L14.0957337,15.4998903 L14.4143817,15.794793 C16.9094571,18.0466206 21.6685304,21.1420739 21.7158246,21.1888878 C22.036618,21.5064239 22.1742859,21.7711695 22.1742859,22.0369949 C22.1742859,22.5733939 20.9940508,22.9999995 18.2222859,22.9999995 L12.9872859,22.9999995 C11.5654461,23.0022915 10.2840742,22.1451623 9.74372801,20.8308705 L7.06968678,14.3307703 C6.81141174,13.4578079 5.90279921,12.8790827 4.95280801,13.0189068 C4.00281682,13.1587309 3.29948323,13.9747097 3.30128676,14.934934 L3.30128588,22.4999949 C3.30128588,22.6326031 3.24860745,22.7597801 3.15483927,22.8535483 C3.06107108,22.9473165 2.93389412,22.9999995 2.80128588,22.9999995 L2.30128588,22.9999995 C1.89608852,22.9999995 1.8005978,22.8680887 1.76371767,21.3914448 L1.72966863,19.353628 C1.66963241,16.4163871 1.52189739,14.2524425 1.0830511,10.9020577 C1.02765846,10.4812555 1.000014,10.0578663 1.00028577,9.63431546 C0.973588857,6.09036099 2.91562561,2.84475732 6.01103211,1.18602182 L6.27915823,1.04776075 Z" fill="#000000" fill-rule="nonzero"></path>
    </g>
</svg>